<svg xmlns="http://www.w3.org/2000/svg" width="13.527" height="16.216" viewBox="0 0 13.527 16.216"><defs><style>.a{fill:#8b8b8b;stroke:#8b8b8b;stroke-width:0.5px;}</style></defs><g transform="translate(-116.96 -199.265)"><g transform="translate(117.21 199.515)"><path class="a" d="M30.242,22.249a1.441,1.441,0,0,1-.445,2.811H27.439a2.753,2.753,0,0,1-5.432,0H19.65a1.44,1.44,0,0,1-.447-2.809V18.3a5.539,5.539,0,0,1,3.664-5.192,1.7,1.7,0,0,1,1.844-1.459,1.707,1.707,0,0,1,1.869,1.459A5.542,5.542,0,0,1,30.244,18.3l0,3.948Zm-3.713,2.811h-3.61a1.86,1.86,0,0,0,3.61,0ZM29.8,23.073a.447.447,0,0,1-.445-.447l0-4.325a4.646,4.646,0,0,0-3.3-4.43c-.324-.066-.361-.324-.361-.592,0-.555-.492-.736-.981-.736s-.959.186-.959.736c0,.256-.025.5-.322.582A4.642,4.642,0,0,0,20.1,18.3v4.325a.448.448,0,0,1-.447.447.547.547,0,1,0,0,1.094H29.8a.547.547,0,1,0,0-1.094Z" transform="translate(-18.21 -11.65)"/></g></g></svg>