<svg xmlns="http://www.w3.org/2000/svg" width="60" height="60" viewBox="0 0 60 60"><defs><style>.a{fill:#ff3939;stroke:#fff;stroke-width:2px;}.b{fill:#fff;}.c{stroke:none;}.d{fill:none;}</style></defs><g transform="translate(-299 -581)"><g class="a" transform="translate(299 581)"><circle class="c" cx="30" cy="30" r="30"/></g><g transform="translate(237.883 519.012)"><g transform="translate(80.117 80.988)"><g transform="translate(0 0)"><path class="b" d="M85.967,92.785,83.5,90.314a6.956,6.956,0,0,1-.6-.662l.164.21a5.042,5.042,0,0,1-.623-1.075c.034.083.07.166.1.249A5.022,5.022,0,0,1,82.2,87.8c.013.091.026.184.036.275a5.056,5.056,0,0,1,0-1.313c-.013.091-.026.184-.036.275a5.053,5.053,0,0,1,.337-1.241c-.034.083-.07.166-.1.249a4.92,4.92,0,0,1,.628-1.069l-.164.21a9.941,9.941,0,0,1,.864-.916l1.108-1.108c.1-.1.2-.21.306-.3l-.21.164a.744.744,0,0,1,.125-.073l-.249.1a.8.8,0,0,1,.135-.039c-.091.013-.184.026-.275.036a.651.651,0,0,1,.174,0c-.091-.013-.184-.026-.275-.036a.617.617,0,0,1,.135.039l-.249-.1a.865.865,0,0,1,.125.073l-.21-.164c.145.119.273.265.4.4l.877.877,1.98,1.98c.161.161.343.317.488.493l-.164-.21a.745.745,0,0,1,.073.125c-.034-.083-.07-.166-.1-.249a.8.8,0,0,1,.039.135c-.013-.091-.026-.184-.036-.275a.651.651,0,0,1,0,.174c.013-.091.026-.184.036-.275a.617.617,0,0,1-.039.135c.034-.083.07-.166.1-.249a.865.865,0,0,1-.073.125l.164-.21c-.153.184-.34.348-.511.517-.254.254-.509.509-.76.763a2.742,2.742,0,0,0-.786,1.259,2.547,2.547,0,0,0,.649,2.4c.205.21.415.415.623.626a1.039,1.039,0,0,0,1.469-1.469,9.872,9.872,0,0,1-.748-.763l.164.21a1.562,1.562,0,0,1-.184-.311c.034.083.07.166.1.249a1.707,1.707,0,0,1-.106-.374c.013.091.026.184.036.275a1.607,1.607,0,0,1,0-.387c-.013.091-.026.184-.036.275a1.652,1.652,0,0,1,.1-.374c-.034.083-.07.166-.1.249a1.552,1.552,0,0,1,.182-.311l-.164.21a7.954,7.954,0,0,1,.636-.654l.794-.794a1.608,1.608,0,0,0,.057-2.333c-.117-.122-.236-.236-.356-.356l-1.69-1.69q-.736-.736-1.472-1.474c-.039-.039-.075-.078-.114-.114a1.662,1.662,0,0,0-1.5-.431,2.183,2.183,0,0,0-1.093.745l-1.5,1.5a5.964,5.964,0,0,0-1.708,3.787,5.733,5.733,0,0,0,.228,2.056,6.169,6.169,0,0,0,1.1,2.066A16.159,16.159,0,0,0,82.8,92.562l1.6,1.6.1.1a1.052,1.052,0,0,0,1.469,0,1.064,1.064,0,0,0,0-1.474Z" transform="translate(-80.117 -80.988)"/></g></g><g transform="translate(86.58 91.997)"><g transform="translate(0)"><path class="b" d="M343.14,511.5l-1.734,1.734a5.749,5.749,0,0,1-.545.491l.21-.164a4.921,4.921,0,0,1-1.069.628l.249-.1a4.882,4.882,0,0,1-1.241.337c.091-.013.184-.026.275-.036a5.059,5.059,0,0,1-1.313,0c.091.013.184.026.275.036a4.991,4.991,0,0,1-1.241-.337l.249.1a4.936,4.936,0,0,1-1.075-.623l.21.164a8.807,8.807,0,0,1-.838-.779c-.384-.387-.773-.773-1.16-1.16l-2.837-2.837-.67-.67v1.469l2.51-2.51.358-.358h-1.469l2.287,2.287a9.931,9.931,0,0,0,1.064,1,2.454,2.454,0,0,0,2.113.345,2.805,2.805,0,0,0,1.168-.742l.758-.758c.179-.179.348-.376.542-.537l-.21.164a.744.744,0,0,1,.125-.073l-.249.1a.8.8,0,0,1,.135-.039c-.091.013-.184.026-.275.036a.651.651,0,0,1,.174,0c-.091-.013-.184-.026-.275-.036a.617.617,0,0,1,.135.039l-.249-.1a.861.861,0,0,1,.125.073l-.21-.164c.145.119.273.265.4.4l.877.877,1.98,1.98c.161.161.343.317.488.493l-.164-.21a.747.747,0,0,1,.073.125c-.034-.083-.07-.166-.1-.249a.8.8,0,0,1,.039.135c-.013-.091-.026-.184-.036-.275a.648.648,0,0,1,0,.174c.013-.091.026-.184.036-.275a.615.615,0,0,1-.039.135c.034-.083.07-.166.1-.249a.865.865,0,0,1-.073.125l.164-.21a.454.454,0,0,0-.052.049,1.078,1.078,0,0,0-.3.735,1.066,1.066,0,0,0,.3.734,1.039,1.039,0,0,0,.735.3,1.061,1.061,0,0,0,.735-.3,1.634,1.634,0,0,0-.031-2.3l-.389-.389-1.531-1.531c-.478-.478-.955-.953-1.43-1.43-.088-.088-.174-.177-.262-.262a1.635,1.635,0,0,0-1.565-.41,1.707,1.707,0,0,0-.753.462l-.789.789a7.992,7.992,0,0,1-.672.654l.21-.163a1.553,1.553,0,0,1-.311.182l.249-.1a1.445,1.445,0,0,1-.374.1c.091-.013.184-.026.275-.036a1.606,1.606,0,0,1-.387,0c.091.013.184.026.275.036a1.543,1.543,0,0,1-.374-.106l.249.1a1.565,1.565,0,0,1-.311-.184l.21.164a4.917,4.917,0,0,1-.395-.376l-.709-.709-1.653-1.653-.382-.382a1.055,1.055,0,0,0-1.469,0l-2.51,2.51-.358.358a1.055,1.055,0,0,0,0,1.469l1.555,1.555,2.622,2.622a9.278,9.278,0,0,0,2.352,1.939,5.968,5.968,0,0,0,3.094.626,5.857,5.857,0,0,0,2.993-1.067,11.951,11.951,0,0,0,1.316-1.194l1.181-1.181.08-.08a1.042,1.042,0,0,0-1.474-1.474Z" transform="translate(-329.125 -505.125)"/></g></g><g transform="translate(80.275 81.13)"><g transform="translate(0 0)"><path class="b" d="M106.515,86.756l-.537.537-1.461,1.461-2.16,2.16-2.624,2.624-2.876,2.876-2.912,2.912-2.715,2.715-2.287,2.287L87.3,105.973c-.26.26-.524.519-.781.781l-.034.034a1.039,1.039,0,0,0,1.469,1.469l.537-.537,1.461-1.461,2.16-2.16,2.624-2.624L97.61,98.6l2.912-2.912,2.715-2.715,2.287-2.287,1.646-1.646c.26-.26.524-.519.781-.781l.034-.034a1.039,1.039,0,1,0-1.469-1.469Z" transform="translate(-86.184 -86.459)"/></g></g></g></g></svg>