<svg xmlns="http://www.w3.org/2000/svg" width="14.883" height="19.202" viewBox="0 0 14.883 19.202"><defs><style>.a{fill:#8a8a8a;stroke:#8a8a8a;stroke-width:0.2px;}</style></defs><g transform="translate(-15.9 -958.26)"><path class="a" d="M18.119,6a.432.432,0,0,0-.391.432v1.3H16.391A.432.432,0,0,0,16,8.158V24.568a.432.432,0,0,0,.432.432H28.524a.432.432,0,0,0,.432-.432v-1.3h1.3a.432.432,0,0,0,.432-.432V9.453a.432.432,0,0,0-.128-.31L27.532,6.12a.432.432,0,0,0-.3-.121H18.119Zm.472.864H26.8V9.453a.449.449,0,0,0,.432.432h2.591V22.409H18.591v-1.08a.432.432,0,1,0-.864,0v1.511a.432.432,0,0,0,.432.432h9.933v.864H16.864v-4.1h5.324l-.857.749a.433.433,0,1,0,.567.655l1.727-1.511a.432.432,0,0,0,0-.655L21.9,17.76a.433.433,0,1,0-.567.655l.864.756H16.864V8.589h.864v9.292a.432.432,0,1,0,.864,0Zm9.069.607,1.552,1.552H27.66Z" transform="translate(0 952.362)"/></g></svg>