<svg xmlns="http://www.w3.org/2000/svg" width="16.403" height="19.429" viewBox="0 0 16.403 19.429"><defs><style>.a{fill:#8a8a8a;}</style></defs><g transform="translate(-1.991 -12)"><g transform="translate(1.991 12)"><path class="a" d="M50.693,18.728h.721l.748,10.6a2.272,2.272,0,0,0,2.265,2.1H61.98a2.272,2.272,0,0,0,2.265-2.1l.745-10.6h.721a.7.7,0,0,0,.693-.693V16.443a2.271,2.271,0,0,0-2.285-2.253H61.626v-.319A1.864,1.864,0,0,0,59.766,12H56.633a1.863,1.863,0,0,0-1.855,1.871v.319H52.285A2.271,2.271,0,0,0,50,16.443v1.593A.7.7,0,0,0,50.693,18.728Zm12.2,10.5a.91.91,0,0,1-.912.844H54.423a.91.91,0,0,1-.912-.844l-.741-10.5H63.636Zm-6.76-15.36a.507.507,0,0,1,.506-.518H59.77a.507.507,0,0,1,.506.518v.319H56.131Zm-4.778,2.572a.916.916,0,0,1,.932-.9H64.122a.916.916,0,0,1,.932.9v.932h-13.7Z" transform="translate(-50 -12)"/></g></g></svg>