<svg xmlns="http://www.w3.org/2000/svg" width="21.743" height="20.806" viewBox="0 0 21.743 20.806">
  <g id="Group_13854" data-name="Group 13854" transform="translate(-141.87 -262.43)">
    <g id="Group_13812" data-name="Group 13812" transform="translate(140.957 263.827)">
      <path id="Path_9" data-name="Path 9" d="M16.695,22.087l-1.958-1.553a2.067,2.067,0,0,0-1.306-.459,2.1,2.1,0,0,0-1.606.741c-.247.3-.423.476-.512.582a4.013,4.013,0,0,1-1.941-1.182A3.728,3.728,0,0,1,8.19,18.275c.106-.088.282-.247.582-.512a2.1,2.1,0,0,0,.282-2.911L7.5,12.894A2.127,2.127,0,0,0,5,12.276,6.267,6.267,0,0,0,3.3,13.388c-.6.6-1.429,1.994-.441,4.676a15.173,15.173,0,0,0,3.494,5.152c2.435,2.435,5.293,3.952,7.446,3.952a3.291,3.291,0,0,0,2.382-.9,6.267,6.267,0,0,0,1.112-1.694A2.041,2.041,0,0,0,16.695,22.087Zm-.423,2.029a4.9,4.9,0,0,1-.882,1.341,2.094,2.094,0,0,1-1.57.565c-1.782,0-4.358-1.341-6.634-3.617C4.079,19.281,2.7,15.611,4.132,14.182A5.5,5.5,0,0,1,5.473,13.3a.942.942,0,0,1,1.147.282l1.535,1.994A.963.963,0,0,1,8.031,16.9c-.406.353-.67.582-.741.653-.6.6-.018,2.153,1.288,3.458a4.646,4.646,0,0,0,2.788,1.535.912.912,0,0,0,.67-.229c.071-.071.318-.335.653-.741a.935.935,0,0,1,.723-.335.958.958,0,0,1,.6.212L15.971,23A.909.909,0,0,1,16.271,24.116Z" transform="translate(0 -7.909)" fill="#ff3939" stroke="#ff3939" stroke-width="0.3"/>
      <path id="Path_10" data-name="Path 10" d="M52.266,30.608a.621.621,0,0,0-.776.653h0a.6.6,0,0,0,.494.565,1.987,1.987,0,0,1,.917.512,1.842,1.842,0,0,1,.512.917.681.681,0,0,0,.565.494h0a.627.627,0,0,0,.653-.776,3.185,3.185,0,0,0-2.364-2.364Z" transform="translate(-40.423 -23.136)" fill="#ff3939" stroke="#ff3939" stroke-width="0.3"/>
      <path id="Path_11" data-name="Path 11" d="M55.558,22.328a.626.626,0,0,0,.67-.688,5.536,5.536,0,0,0-1.641-3.511,5.67,5.67,0,0,0-3.511-1.641.626.626,0,0,0-.688.67.61.61,0,0,0,.565.582,4.391,4.391,0,0,1,4.005,4.005A.675.675,0,0,0,55.558,22.328Z" transform="translate(-39.516 -11.521)" fill="#ff3939" stroke="#ff3939" stroke-width="0.3"/>
      <path id="Path_12" data-name="Path 12" d="M55.592,4.861A8.084,8.084,0,0,0,50.122,2.5a.612.612,0,0,0-.635.67h0a.615.615,0,0,0,.6.582,6.905,6.905,0,0,1,4.605,2.011,6.8,6.8,0,0,1,1.994,4.605.629.629,0,0,0,.582.6h0a.621.621,0,0,0,.67-.635A7.985,7.985,0,0,0,55.592,4.861Z" transform="translate(-38.773 0)" fill="#ff3939" stroke="#ff3939" stroke-width="0.3"/>
    </g>
    <g id="Rectangle_1065" data-name="Rectangle 1065" transform="translate(144.598 262.43) rotate(43)" fill="#fc3939" stroke="#f0f2f5" stroke-linecap="round" stroke-width="1">
      <rect width="26" height="4" rx="2" stroke="none"/>
      <rect x="0.5" y="0.5" width="25" height="3" rx="1.5" fill="none"/>
    </g>
  </g>
</svg>
