<svg xmlns="http://www.w3.org/2000/svg" width="21.743" height="20.657" viewBox="0 0 21.743 20.657">
  <g id="Group_13852" data-name="Group 13852" transform="translate(-804.597 -829.671)">
    <g id="Group_11936" data-name="Group 11936" transform="translate(-312.396 600)">
      <g id="Group_1966" data-name="Group 1966" transform="translate(1106.396 211.82)">
        <g id="Group_1886" data-name="Group 1886" transform="translate(12 22)">
          <path id="Path_4" data-name="Path 4" d="M24.942,33.993a6,6,0,0,0,0-11.993H17.994a6,6,0,0,0-1.561,11.788c-.014.5-.014,2.413-.014,2.413a.889.889,0,0,0,1.518.72l3.554-2.927Zm-3.9-1.262-.175.144-3.183,2.613V32.75l-.521-.093a4.735,4.735,0,0,1,.834-9.4h6.948a4.734,4.734,0,0,1,0,9.468h-3.9Zm4.989-5.365a.631.631,0,0,0,0-1.262h-8.76a.631.631,0,0,0,0,1.262ZM22,29.89a.631.631,0,0,0,0-1.262H17.17a.631.631,0,0,0,0,1.262Z" transform="translate(-12 -22)" fill="#ff3939" stroke="#ff3939" stroke-width="0.3" fill-rule="evenodd"/>
        </g>
      </g>
    </g>
    <g id="Rectangle_1053" data-name="Rectangle 1053" transform="translate(807.325 829.671) rotate(43)" fill="#fc3939" stroke="#f0f2f5" stroke-linecap="round" stroke-width="1">
      <rect width="26" height="4" rx="2" stroke="none"/>
      <rect x="0.5" y="0.5" width="25" height="3" rx="1.5" fill="none"/>
    </g>
  </g>
</svg>
