<svg xmlns="http://www.w3.org/2000/svg" width="26.256" height="20.657" viewBox="0 0 26.256 20.657">
  <g id="Group_13853" data-name="Group 13853" transform="translate(-100.464 -262.43)">
    <g id="Group_13811" data-name="Group 13811" transform="translate(73.905 -330.24)">
      <g id="Group_1" data-name="Group 1" transform="translate(29.727 596.159)">
        <path id="Path_1" data-name="Path 1" d="M2.993,0H12.4a2.993,2.993,0,0,1,2.993,2.993v7.7A2.993,2.993,0,0,1,12.4,13.682H2.993A2.993,2.993,0,0,1,0,10.689v-7.7A2.993,2.993,0,0,1,2.993,0Zm0,1.71A1.283,1.283,0,0,0,1.71,2.993v7.7a1.283,1.283,0,0,0,1.283,1.283H12.4a1.283,1.283,0,0,0,1.283-1.283v-7.7A1.283,1.283,0,0,0,12.4,1.71ZM17.7,2.6l2.85-.8a2,2,0,0,1,2.534,1.921V9.965a2,2,0,0,1-2.534,1.921l-2.85-.8a2,2,0,0,1-1.457-1.921V4.517A2,2,0,0,1,17.7,2.6Zm.462,1.647a.285.285,0,0,0-.208.274V9.165a.285.285,0,0,0,.208.274l2.85.8a.285.285,0,0,0,.362-.274V3.718a.285.285,0,0,0-.362-.274Z" transform="translate(0 0)" fill="#ff3939"/>
      </g>
    </g>
    <g id="Rectangle_1066" data-name="Rectangle 1066" transform="translate(103.192 262.43) rotate(43)" fill="#fc3939" stroke="#f0f2f5" stroke-linecap="round" stroke-width="1">
      <rect width="26" height="4" rx="2" stroke="none"/>
      <rect x="0.5" y="0.5" width="25" height="3" rx="1.5" fill="none"/>
    </g>
  </g>
</svg>
