<?xml version="1.0" encoding="UTF-8"?>
<svg width="20px" height="23px" viewBox="0 0 20 23" version="1.1" xmlns="http://www.w3.org/2000/svg" xmlns:xlink="http://www.w3.org/1999/xlink">
    <title>Shape</title>
    <g id="Page-1" stroke="none" stroke-width="1" fill="none" fill-rule="evenodd">
        <g id="60_Insightreport_custom" transform="translate(-651.000000, -2809.000000)">
            <path d="M664,2810 L658,2810 L658,2812 L664,2812 L664,2810 Z M660,2823 L662,2823 L662,2817 L660,2817 L660,2823 Z M668.03,2816.39 L669.45,2814.97 C669.02,2814.46 668.55,2813.98 668.04,2813.56 L666.62,2814.98 C665.07,2813.74 663.12,2813 661,2813 C656.03,2813 652,2817.03 652,2822 C652,2826.97 656.02,2831 661,2831 C665.98,2831 670,2826.97 670,2822 C670,2819.88 669.26,2817.93 668.03,2816.39 Z M661,2829 C657.13,2829 654,2825.87 654,2822 C654,2818.13 657.13,2815 661,2815 C664.87,2815 668,2818.13 668,2822 C668,2825.87 664.87,2829 661,2829 Z" id="Shape" fill="#000000" fill-rule="nonzero"></path>
        </g>
    </g>
</svg>