<svg xmlns="http://www.w3.org/2000/svg" width="19.462" height="19.468" viewBox="0 0 19.462 19.468"><defs></defs><g transform="translate(-2.269 -2.266)"><g class="a"><path class="b" d="M 18.00900077819824 21.58399963378906 L 5.230999946594238 21.58399963378906 C 3.680459976196289 21.58399963378906 2.418999910354614 20.31088066101074 2.418999910354614 18.74600028991699 L 2.418999910354614 5.968000411987305 C 2.418999910354614 4.431790351867676 3.680459976196289 3.182000398635864 5.230999946594238 3.182000398635864 L 12.68499946594238 3.182000398635864 L 12.83500003814697 3.182000398635864 L 12.83500003814697 3.332000255584717 L 12.83500003814697 4.396000385284424 L 12.83500003814697 4.546000480651855 L 12.68499946594238 4.546000480651855 L 5.230999946594238 4.546000480651855 C 4.419600009918213 4.546000480651855 3.783999919891357 5.170180320739746 3.783999919891357 5.967000484466553 L 3.783999919891357 18.74600028991699 C 3.783999919891357 19.54499053955078 4.446640014648438 20.22000122070313 5.230999946594238 20.22000122070313 L 18.01000022888184 20.22000122070313 C 18.77961540222168 20.22000122070313 19.43204116821289 19.57016181945801 19.456298828125 18.79095649719238 L 19.45599937438965 18.74600028991699 L 19.45599937438965 11.31800079345703 L 19.45599937438965 11.16800022125244 L 19.60599899291992 11.16800022125244 L 20.67099952697754 11.16800022125244 L 20.82099914550781 11.16800022125244 L 20.82099914550781 11.31800079345703 L 20.82099914550781 18.74600028991699 C 20.82099914550781 20.31088066101074 19.55953979492188 21.58399963378906 18.00900077819824 21.58399963378906 Z"/><path class="c" d="M 18.00900077819824 21.43400001525879 C 19.47699928283691 21.43400001525879 20.67099952697754 20.2130012512207 20.67099952697754 18.74600028991699 L 20.67099952697754 11.31800079345703 L 19.60599899291992 11.31800079345703 L 19.60599899291992 18.74600028991699 L 19.60700035095215 18.74600028991699 C 19.60700035095215 19.62700080871582 18.89100074768066 20.3700008392334 18.01000022888184 20.3700008392334 L 5.230999946594238 20.3700008392334 C 4.349999904632568 20.3700008392334 3.633999824523926 19.62700080871582 3.633999824523926 18.74600028991699 L 3.633999824523926 5.967000484466553 C 3.633999824523926 5.086000442504883 4.349999904632568 4.396000385284424 5.230999946594238 4.396000385284424 L 12.68499946594238 4.396000385284424 L 12.68499946594238 3.332000255584717 L 5.230999946594238 3.332000255584717 C 3.762999773025513 3.332000255584717 2.568999767303467 4.500000476837158 2.568999767303467 5.968000411987305 L 2.568999767303467 18.74600028991699 C 2.568999767303467 20.2140007019043 3.762999773025513 21.43400001525879 5.230999946594238 21.43400001525879 L 18.00900077819824 21.43400001525879 M 18.00900077819824 21.73400115966797 L 5.230999946594238 21.73400115966797 C 3.597749948501587 21.73400115966797 2.268999814987183 20.39359092712402 2.268999814987183 18.74600028991699 L 2.268999814987183 5.968000411987305 C 2.268999814987183 4.349080562591553 3.597749948501587 3.032000303268433 5.230999946594238 3.032000303268433 L 12.68499946594238 3.032000303268433 L 12.98499965667725 3.032000303268433 L 12.98499965667725 3.332000255584717 L 12.98499965667725 4.396000385284424 L 12.98499965667725 4.696000576019287 L 12.68499946594238 4.696000576019287 L 5.230999946594238 4.696000576019287 C 4.50370979309082 4.696000576019287 3.93399977684021 5.254290580749512 3.93399977684021 5.967000484466553 L 3.93399977684021 18.74600028991699 C 3.93399977684021 19.46368026733398 4.527949810028076 20.06999969482422 5.230999946594238 20.06999969482422 L 18.01000022888184 20.06999969482422 C 18.69768714904785 20.06999969482422 19.28099250793457 19.48982620239258 19.30615615844727 18.79281806945801 L 19.30599975585938 18.74600028991699 L 19.30599975585938 11.31800079345703 L 19.30599975585938 11.01800060272217 L 19.60599899291992 11.01800060272217 L 20.67099952697754 11.01800060272217 L 20.97100067138672 11.01800060272217 L 20.97100067138672 11.31800079345703 L 20.97100067138672 18.74600028991699 C 20.97100067138672 20.39359092712402 19.64225006103516 21.73400115966797 18.00900077819824 21.73400115966797 Z"/></g><g class="a"><path class="b" d="M 10.2760009765625 14.38299942016602 C 10.09670066833496 14.38299942016602 9.920990943908691 14.31013011932373 9.793931007385254 14.18307018280029 C 9.625741004943848 14.01359939575195 9.557110786437988 13.76535987854004 9.614431381225586 13.53481006622314 L 10.36647129058838 10.52365016937256 C 10.39594078063965 10.40446949005127 10.45803070068359 10.29483985900879 10.54593086242676 10.20693016052246 L 17.68893051147461 3.063929796218872 C 18.10055160522461 2.652319669723511 18.68826103210449 2.416249752044678 19.3013801574707 2.416249752044678 C 19.91453170776367 2.416249752044678 20.50199127197266 2.652349710464478 20.91313171386719 3.063999891281128 C 21.34374046325684 3.493539810180664 21.58100128173828 4.065739631652832 21.58100128173828 4.674999713897705 C 21.58100128173828 5.283829689025879 21.34379005432129 5.856339931488037 20.91307067871094 6.287069797515869 L 13.77007102966309 13.43006992340088 C 13.6817512512207 13.51838970184326 13.57199096679688 13.58049964904785 13.45265102386475 13.60970020294189 L 10.44138050079346 14.36252021789551 C 10.38853073120117 14.37603950500488 10.33263111114502 14.38299942016602 10.2760009765625 14.38299942016602 Z M 11.64544105529785 11.03769969940186 L 11.21415424346924 12.76284599304199 L 12.93930053710938 12.3315601348877 L 18.71286010742188 6.557999610900879 L 17.41900062561035 5.264139652252197 L 11.64544105529785 11.03769969940186 Z M 18.38414001464844 4.297999858856201 L 19.67800140380859 5.591859817504883 L 19.94793128967285 5.321929931640625 C 20.12080001831055 5.149069786071777 20.21600151062012 4.919319629669189 20.21600151062012 4.674999713897705 C 20.21600151062012 4.430679798126221 20.12080001831055 4.200929641723633 19.94793128967285 4.028069972991943 C 19.78425025939941 3.8643798828125 19.5484504699707 3.770499706268311 19.30100059509277 3.770499706268311 C 19.05355072021484 3.770499706268311 18.81775093078613 3.8643798828125 18.65407180786133 4.028069972991943 L 18.38414001464844 4.297999858856201 Z"/><path class="c" d="M 19.30137634277344 2.566249847412109 C 18.7495002746582 2.566249847412109 18.19750213623047 2.767499923706055 17.79500198364258 3.170000076293945 L 10.65200042724609 10.3129997253418 C 10.5840015411377 10.38099956512451 10.53500175476074 10.46700000762939 10.51200103759766 10.55999946594238 L 9.760000228881836 13.57100009918213 C 9.715000152587891 13.7519998550415 9.768001556396484 13.94400024414063 9.900001525878906 14.07699966430664 C 10.00100135803223 14.17799949645996 10.13700103759766 14.23299980163574 10.2760009765625 14.23299980163574 C 10.31900024414063 14.23299980163574 10.36200141906738 14.22799968719482 10.40500068664551 14.21700000762939 L 13.41700172424316 13.46399974822998 C 13.51100158691406 13.44099998474121 13.59600067138672 13.39200019836426 13.66400146484375 13.32399940490723 L 20.8070011138916 6.180999755859375 C 21.20899963378906 5.778999328613281 21.43099975585938 5.243999481201172 21.43099975585938 4.675000190734863 C 21.43099975585938 4.105999946594238 21.21000099182129 3.571999549865723 20.8070011138916 3.170000076293945 C 20.40500068664551 2.767499923706055 19.85325050354004 2.566249847412109 19.30137634277344 2.566249847412109 M 19.67800140380859 5.803999900817871 L 18.17200088500977 4.297999382019043 L 18.54800033569336 3.921999931335449 C 18.74900054931641 3.720999717712402 19.02500152587891 3.620499610900879 19.30100059509277 3.620499610900879 C 19.57699966430664 3.620499610900879 19.85300064086914 3.720999717712402 20.05400085449219 3.921999931335449 C 20.25500106811523 4.123000144958496 20.36600112915039 4.389999389648438 20.36600112915039 4.675000190734863 C 20.36600112915039 4.960000038146973 20.25500106811523 5.22700023651123 20.05400085449219 5.427999496459961 L 19.67800140380859 5.803999900817871 M 11.00800132751465 12.9689998626709 L 11.51000022888184 10.96100044250488 L 17.41900062561035 5.052000045776367 L 18.92500114440918 6.557999610900879 L 13.01600074768066 12.46700000762939 L 11.00800132751465 12.9689998626709 M 19.30137062072754 2.266249656677246 C 19.95405197143555 2.266249656677246 20.58019065856934 2.518380165100098 21.01926040649414 2.958000183105469 C 21.47809219360352 3.415689468383789 21.73100090026855 4.025609970092773 21.73100090026855 4.675000190734863 C 21.73100090026855 5.32390022277832 21.47819137573242 5.934080123901367 21.01913070678711 6.393129348754883 L 13.87613105773926 13.53612995147705 C 13.76841163635254 13.64385986328125 13.63430023193359 13.7196798324585 13.48830032348633 13.75539970397949 L 10.47776031494141 14.5080394744873 C 10.41357040405273 14.52446937561035 10.34514999389648 14.53299999237061 10.2760009765625 14.53299999237061 C 10.05722045898438 14.53299999237061 9.842851638793945 14.44410991668701 9.687870025634766 14.28912925720215 C 9.48259162902832 14.08230018615723 9.398981094360352 13.77969932556152 9.468860626220703 13.49862003326416 L 10.2209415435791 10.4873104095459 C 10.25689125061035 10.34194946289063 10.33265113830566 10.20808982849121 10.43987083435059 10.10087013244629 L 17.58287048339844 2.957869529724121 C 18.02239990234375 2.518340110778809 18.64877128601074 2.266249656677246 19.30137062072754 2.266249656677246 Z M 19.67800140380859 5.379739761352539 L 19.84187126159668 5.215869903564453 C 19.98640060424805 5.071330070495605 20.06600189208984 4.879249572753906 20.06600189208984 4.675000190734863 C 20.06600189208984 4.470749855041504 19.98640060424805 4.278669357299805 19.84187126159668 4.134129524230957 C 19.70610046386719 3.998370170593262 19.50896072387695 3.920499801635742 19.30100059509277 3.920499801635742 C 19.09304046630859 3.920499801635742 18.89590072631836 3.998370170593262 18.7601318359375 4.134129524230957 L 18.59626007080078 4.297999382019043 L 19.67800140380859 5.379739761352539 Z M 18.50074005126953 6.557999610900879 L 17.41900062561035 5.476260185241699 L 11.78088760375977 11.11437320709229 L 11.42030715942383 12.5566930770874 L 12.86262702941895 12.19611358642578 L 18.50074005126953 6.557999610900879 Z"/></g></g></svg>