<svg xmlns="http://www.w3.org/2000/svg" width="15.505" height="15.5" viewBox="0 0 15.505 15.5"><path class="a" d="M41.984,33.775a7.821,7.821,0,0,0-6.956-7.253,7.753,7.753,0,1,0-1.549,15.428,6.352,6.352,0,0,0,.791.033,7.394,7.394,0,0,0,4.286-1.319.736.736,0,0,0-.824-1.22,6.263,6.263,0,0,1-7.879-9.659,6.255,6.255,0,0,1,10.681,4.055,6.549,6.549,0,0,1-.33,2.407,1.428,1.428,0,0,1-1.352.956,1.407,1.407,0,0,1-1.418-1.418V31.138a.767.767,0,0,0-.758-.758.746.746,0,0,0-.758.758v.231a3.466,3.466,0,0,0-2.077-.659,3.544,3.544,0,1,0,2.308,6.231,2.919,2.919,0,0,0,5.44-.165A9.279,9.279,0,0,0,41.984,33.775Zm-8.143,2.538a2.077,2.077,0,1,1,2.077-2.077A2.089,2.089,0,0,1,33.841,36.314Z" transform="translate(-26.484 -26.484)"/></svg>