<svg xmlns="http://www.w3.org/2000/svg" width="85.5" height="67.415" viewBox="0 0 85.5 67.415"><defs><style>.a{fill:#ff3939;}.b{fill:none;stroke:#f0f2f5;stroke-linecap:round;stroke-width:4px;}.c{fill:#262626;stroke:#2b2b2b;}</style></defs><g transform="translate(-650 -301.5)"><g transform="translate(-55.5 129)"><g transform="translate(751.213 200.128)"><path class="a" d="M20.894,40.787A19.894,19.894,0,1,0,1,20.894,19.894,19.894,0,0,0,20.894,40.787Z" transform="translate(-1 -1)"/><line class="b" x2="11.113" y2="11.113" transform="translate(14.337 14.337)"/><line class="b" x1="11.113" y2="11.113" transform="translate(14.337 14.337)"/></g></g><path class="c" d="M39.979,51.4H5.617V19.9L33.776,33.156a1.935,1.935,0,0,0,1.555,0L63.489,19.9v7.994a1.809,1.809,0,0,0,3.617,0V9.809A1.809,1.809,0,0,0,65.3,8H3.809A1.809,1.809,0,0,0,2,9.809v43.4a1.809,1.809,0,0,0,1.809,1.809h36.17a1.809,1.809,0,0,0,0-3.617ZM63.489,11.617v4.268L34.553,29.5,5.617,15.885V11.617Z" transform="translate(648.5 294)"/></g></svg>
