<svg xmlns="http://www.w3.org/2000/svg" width="85.5" height="67.415" viewBox="0 0 85.5 67.415"><g transform="translate(-650 -301.5)"><g transform="translate(-55.5 129)"><g transform="translate(751.213 200.128)"><path class="a" d="M20.894,40.787A19.894,19.894,0,1,0,1,20.894,19.894,19.894,0,0,0,20.894,40.787ZM10.567,21.418a1.809,1.809,0,0,1,2.55,0l4.16,4.16L27.748,15.106a1.809,1.809,0,0,1,2.55,2.55L18.543,29.412a1.809,1.809,0,0,1-2.55,0l-5.426-5.426a1.809,1.809,0,0,1,0-2.568Z" transform="translate(-1 -1)"/></g></g><path class="b" d="M39.979,51.4H5.617V19.9L33.776,33.156a1.935,1.935,0,0,0,1.555,0L63.489,19.9v7.994a1.809,1.809,0,0,0,3.617,0V9.809A1.809,1.809,0,0,0,65.3,8H3.809A1.809,1.809,0,0,0,2,9.809v43.4a1.809,1.809,0,0,0,1.809,1.809h36.17a1.809,1.809,0,0,0,0-3.617ZM63.489,11.617v4.268L34.553,29.5,5.617,15.885V11.617Z" transform="translate(648.5 294)"/></g></svg>