<svg xmlns="http://www.w3.org/2000/svg" width="14.234" height="16.151" viewBox="0 0 14.234 16.151"><defs><style>.a{fill:#ffffff;stroke:#ffffff;stroke-width:0.5px;}</style></defs><g transform="translate(-28.25 -25.25)"><g transform="translate(28.5 25.5)"><path class="a" d="M8.3,1.014h0a2.077,2.077,0,0,1,0,4.041v8.2a.479.479,0,1,1-.958,0v-8.2a2.077,2.077,0,0,1,0-4.041V.479a.479.479,0,1,1,.958,0Zm-1.6,2.02A1.118,1.118,0,1,0,7.825,1.916,1.119,1.119,0,0,0,6.707,3.034ZM2.555,8.679h0a2.077,2.077,0,0,1,0,4.041v.535a.479.479,0,1,1-.958,0V12.72a2.077,2.077,0,0,1,0-4.041V.479a.479.479,0,0,1,.958,0ZM.958,10.7A1.118,1.118,0,1,0,2.076,9.582,1.119,1.119,0,0,0,.958,10.7Zm13.1-4.9h0a2.077,2.077,0,0,1,0,4.041v3.409a.479.479,0,1,1-.958,0V9.846a2.077,2.077,0,0,1,0-4.041V.479a.479.479,0,0,1,.958,0Zm-1.6,2.02a1.118,1.118,0,1,0,1.118-1.118A1.119,1.119,0,0,0,12.457,7.825Z" transform="translate(13.734) rotate(90)"/></g></g></svg>