<svg xmlns="http://www.w3.org/2000/svg" width="30.378" height="38.004" viewBox="0 0 30.378 38.004"><defs></defs><path class="a" d="M-150.765,233.958h0a.3.3,0,0,0-.117-.234.057.057,0,0,0-.059-.059c-.059-.059-.117-.176-.176-.234h0l-8.606-8.255h0c-.059-.059-.117-.117-.176-.117h-.059a.352.352,0,0,0-.234-.059h-15.983a4.635,4.635,0,0,0-4.625,4.625v28.454a4.635,4.635,0,0,0,4.625,4.625h20.726a4.635,4.635,0,0,0,4.625-4.625v-23.77C-150.707,234.133-150.707,234.016-150.765,233.958Zm-8.548-5.621,5.035,4.8h-2.459a2.6,2.6,0,0,1-2.576-2.576Zm3.981,32.2h-20.726a2.6,2.6,0,0,1-2.576-2.576V229.508a2.6,2.6,0,0,1,2.576-2.576h14.7v3.688a4.635,4.635,0,0,0,4.625,4.625h3.981v22.775A2.588,2.588,0,0,1-155.332,260.538ZM-157.5,246.37a.987.987,0,0,1-1,1H-172.72a1.039,1.039,0,0,1-1.054-1,1,1,0,0,1,1.054-1h14.227A1.026,1.026,0,0,1-157.5,246.37Zm-16.393-6.323a.987.987,0,0,1,1-1h14.227a.987.987,0,0,1,1,1,1.026,1.026,0,0,1-1,1H-172.9A1.026,1.026,0,0,1-173.891,240.047Zm16.393,12.7a.987.987,0,0,1-1,1H-172.72a1.039,1.039,0,0,1-1.054-1,1,1,0,0,1,1.054-1h14.227A.987.987,0,0,1-157.5,252.751Z" transform="translate(180.95 -224.85)"/></svg>