<svg xmlns="http://www.w3.org/2000/svg" width="53" height="53" viewBox="0 0 53 53"><defs><style>.a{fill:#a7c853;stroke:#a7c853;}.b{fill:#fff;stroke:#fff;stroke-width:0.3px;}.c{stroke:none;}.d{fill:none;}</style></defs><g transform="translate(-1079 -587)"><g class="a" transform="translate(1079 587)"><path class="c" d="M5,0H33A20,20,0,0,1,53,20V48a5,5,0,0,1-5,5H20A20,20,0,0,1,0,33V5A5,5,0,0,1,5,0Z"/><path class="d" d="M5,.5H33A19.5,19.5,0,0,1,52.5,20V48A4.5,4.5,0,0,1,48,52.5H20A19.5,19.5,0,0,1,.5,33V5A4.5,4.5,0,0,1,5,.5Z"/></g><path class="b" d="M-160.16,231.156h0a.209.209,0,0,0-.08-.161.039.039,0,0,0-.04-.04c-.04-.04-.08-.121-.121-.161h0l-5.914-5.673h0c-.04-.04-.08-.08-.121-.08h-.04a.242.242,0,0,0-.161-.04h-10.984a3.185,3.185,0,0,0-3.178,3.178v19.553a3.185,3.185,0,0,0,3.178,3.178h14.243a3.185,3.185,0,0,0,3.178-3.178V231.4C-160.12,231.276-160.12,231.2-160.16,231.156Zm-5.874-3.862,3.46,3.3h-1.69a1.786,1.786,0,0,1-1.77-1.77Zm2.736,22.128h-14.243a1.786,1.786,0,0,1-1.77-1.77V228.1a1.786,1.786,0,0,1,1.77-1.77h10.1v2.535a3.185,3.185,0,0,0,3.178,3.178h2.736v15.651A1.778,1.778,0,0,1-163.3,249.422Zm-1.489-9.736a.678.678,0,0,1-.684.684h-9.777a.714.714,0,0,1-.724-.684.688.688,0,0,1,.724-.684h9.777A.705.705,0,0,1-164.787,239.685Zm-11.265-4.345a.678.678,0,0,1,.684-.684h9.777a.678.678,0,0,1,.684.684.705.705,0,0,1-.684.684h-9.777A.705.705,0,0,1-176.052,235.34Zm11.265,8.731a.678.678,0,0,1-.684.684h-9.777a.714.714,0,0,1-.724-.684.688.688,0,0,1,.724-.684h9.777A.678.678,0,0,1-164.787,244.071Z" transform="translate(1276.035 375.501)"/></g></svg>