<svg xmlns="http://www.w3.org/2000/svg" width="35.963" height="35.922" viewBox="0 0 35.963 35.922"><g transform="translate(0.192 0.15)"><path class="a" d="M32.773,33.322l-4.162-3.3a4.392,4.392,0,0,0-2.775-.975,4.457,4.457,0,0,0-3.412,1.575c-.525.637-.9,1.012-1.087,1.237a8.528,8.528,0,0,1-4.124-2.512A7.923,7.923,0,0,1,14.7,25.223c.225-.187.6-.525,1.237-1.087a4.468,4.468,0,0,0,.6-6.187l-3.3-4.162a4.519,4.519,0,0,0-5.324-1.312,13.317,13.317,0,0,0-3.6,2.362c-1.275,1.275-3.037,4.237-.937,9.936A32.242,32.242,0,0,0,10.8,35.722c5.174,5.174,11.248,8.4,15.823,8.4a6.994,6.994,0,0,0,5.062-1.912,13.317,13.317,0,0,0,2.362-3.6A4.337,4.337,0,0,0,32.773,33.322Zm-.9,4.312A10.41,10.41,0,0,1,30,40.483a4.45,4.45,0,0,1-3.337,1.2c-3.787,0-9.261-2.85-14.1-7.686C5.964,27.36,3.04,19.561,6.077,16.524a11.683,11.683,0,0,1,2.85-1.875,2,2,0,0,1,2.437.6l3.262,4.237a2.047,2.047,0,0,1-.262,2.812c-.862.75-1.425,1.237-1.575,1.387-1.275,1.275-.037,4.574,2.737,7.349C17.55,33.059,19.875,34.3,21.45,34.3a1.937,1.937,0,0,0,1.425-.487c.15-.15.675-.712,1.387-1.575a1.987,1.987,0,0,1,1.537-.712,2.036,2.036,0,0,1,1.275.45l4.162,3.3A1.932,1.932,0,0,1,31.873,37.634Z" transform="translate(-2.404 -8.499)"/><path class="a" d="M53.142,30.63a1.32,1.32,0,0,0-1.65,1.387h0a1.278,1.278,0,0,0,1.05,1.2,4.222,4.222,0,0,1,1.95,1.087,3.913,3.913,0,0,1,1.087,1.95,1.447,1.447,0,0,0,1.2,1.05h0a1.332,1.332,0,0,0,1.387-1.65,6.768,6.768,0,0,0-5.024-5.024Z" transform="translate(-33.083 -20.055)"/><path class="a" d="M61.377,28.9A1.33,1.33,0,0,0,62.8,27.439a11.765,11.765,0,0,0-3.487-7.461,12.048,12.048,0,0,0-7.461-3.487,1.33,1.33,0,0,0-1.462,1.425,1.3,1.3,0,0,0,1.2,1.237A9.33,9.33,0,0,1,60.1,27.664,1.434,1.434,0,0,0,61.377,28.9Z" transform="translate(-32.395 -11.24)"/><path class="a" d="M62.463,7.522A17.179,17.179,0,0,0,50.84,2.5a1.3,1.3,0,0,0-1.35,1.425h0A1.307,1.307,0,0,0,50.765,5.16a14.674,14.674,0,0,1,9.786,4.274,14.458,14.458,0,0,1,4.237,9.786,1.336,1.336,0,0,0,1.237,1.275h0a1.32,1.32,0,0,0,1.425-1.35A16.968,16.968,0,0,0,62.463,7.522Z" transform="translate(-31.831 -2.496)"/></g></svg>