<svg xmlns="http://www.w3.org/2000/svg" width="16.082" height="16.081" viewBox="0 0 16.082 16.081"><defs><style>.a{fill:#8a8a8a;}</style></defs><g transform="translate(-654.918 402.556)"><g transform="translate(660.062 -398.53)"><g transform="translate(0 0)"><path class="a" d="M343.618,283.434v-5.558c0-.255.005-.513,0-.768v-.01l-1.281.736.543.317q.649.378,1.3.755l1.576.916,1.358.79c.221.129.441.262.664.387l.01.005v-1.47l-.543.317q-.649.378-1.3.755l-1.576.916-1.358.79c-.221.129-.445.254-.664.387l-.01.005a.882.882,0,0,0-.392.509.872.872,0,0,0,.085.656.857.857,0,0,0,.509.392.889.889,0,0,0,.656-.085l.543-.317q.649-.378,1.3-.755l1.576-.916,1.358-.79c.221-.129.445-.254.664-.387l.01-.005a.86.86,0,0,0,0-1.47l-.543-.317q-.649-.378-1.3-.755l-1.576-.916-1.358-.79c-.221-.129-.441-.261-.664-.387l-.01-.005a.853.853,0,0,0-1.283.736v5.558c0,.255,0,.513,0,.768v.01a.887.887,0,0,0,.249.6.855.855,0,0,0,1.206,0A.892.892,0,0,0,343.618,283.434Z" transform="translate(-341.911 -276.25)"/></g></g><g transform="translate(654.918 -402.556)"><g transform="translate(0 0)"><path class="a" d="M54.3,47.929a7.37,7.37,0,0,1-.065.969l.031-.227a7.182,7.182,0,0,1-.494,1.812c.029-.068.058-.136.085-.2a7.255,7.255,0,0,1-.937,1.606l.133-.172a7.3,7.3,0,0,1-1.306,1.306l.172-.133a7.217,7.217,0,0,1-1.606.937l.2-.085a7.22,7.22,0,0,1-1.812.494l.227-.031a7.4,7.4,0,0,1-1.94,0l.227.031a7.181,7.181,0,0,1-1.812-.494l.2.085A7.255,7.255,0,0,1,44,52.889l.172.133a7.3,7.3,0,0,1-1.306-1.306l.133.172a7.217,7.217,0,0,1-.937-1.606c.029.068.058.136.085.2a7.22,7.22,0,0,1-.494-1.812l.031.227a7.4,7.4,0,0,1,0-1.94l-.031.227a7.181,7.181,0,0,1,.494-1.812c-.029.068-.058.136-.085.2A7.255,7.255,0,0,1,43,43.969l-.133.172a7.3,7.3,0,0,1,1.306-1.306L44,42.967a7.217,7.217,0,0,1,1.606-.937l-.2.085a7.22,7.22,0,0,1,1.812-.494l-.227.031a7.4,7.4,0,0,1,1.94,0l-.227-.031a7.182,7.182,0,0,1,1.812.494l-.2-.085a7.255,7.255,0,0,1,1.606.937l-.172-.133a7.3,7.3,0,0,1,1.306,1.306l-.133-.172a7.217,7.217,0,0,1,.937,1.606c-.029-.068-.058-.136-.085-.2a7.221,7.221,0,0,1,.494,1.812l-.031-.227a7.416,7.416,0,0,1,.065.971.887.887,0,0,0,.249.6.855.855,0,0,0,1.206,0,.876.876,0,0,0,.249-.6,8.018,8.018,0,0,0-1.451-4.6,8.631,8.631,0,0,0-.818-.995,8.479,8.479,0,0,0-.971-.845,8.034,8.034,0,0,0-6.994-1.294A8.012,8.012,0,0,0,41.8,42.763a8.772,8.772,0,0,0-.751,1.049,8.432,8.432,0,0,0-.569,1.17,7.889,7.889,0,0,0-.542,2.4,8.018,8.018,0,0,0,4.64,7.842,8.524,8.524,0,0,0,1.23.456,8.674,8.674,0,0,0,1.318.244,8.024,8.024,0,0,0,8.758-6.682A8.928,8.928,0,0,0,56,47.929a.887.887,0,0,0-.249-.6.855.855,0,0,0-1.206,0A.89.89,0,0,0,54.3,47.929Z" transform="translate(-39.918 -39.888)"/></g></g></g></svg>