<svg xmlns="http://www.w3.org/2000/svg" width="17.857" height="17.857" viewBox="0 0 17.857 17.857"><defs><style>.a{fill:#8b8b8b;}</style></defs><g transform="translate(-14.5 -14.5)"><g transform="translate(14.5 14.5)"><path class="a" d="M23.429,14.5a8.929,8.929,0,1,0,8.929,8.929A8.931,8.931,0,0,0,23.429,14.5ZM18.147,28.987a6.742,6.742,0,0,1,5.282-2.918,6.742,6.742,0,0,1,5.282,2.918,7.659,7.659,0,0,1-10.564,0Zm5.282-4.427a2.616,2.616,0,1,1,2.616-2.616A2.614,2.614,0,0,1,23.429,24.561Zm6.137,3.471a8.561,8.561,0,0,0-3.949-2.867,3.873,3.873,0,1,0-4.326,0,8.561,8.561,0,0,0-3.949,2.867,7.56,7.56,0,0,1-1.534-4.6,7.646,7.646,0,1,1,13.758,4.6Z" transform="translate(-14.5 -14.5)"/></g></g></svg>