<svg xmlns="http://www.w3.org/2000/svg" width="28.373" height="28.828" viewBox="0 0 28.373 28.828"><defs><style>.a{fill:#262626;}.b{fill:#a7c853;stroke:#a7c853;stroke-width:0.2px;}</style></defs><g transform="translate(-420.336 -1406.776)"><g transform="translate(417.336 1402.376)"><g transform="translate(3 4.4)"><path class="a" d="M37.964,29.528a4.664,4.664,0,1,1,4.664-4.664A4.661,4.661,0,0,1,37.964,29.528Zm0-7.561a2.926,2.926,0,1,0,2.926,2.926A2.936,2.936,0,0,0,37.964,21.967Z" transform="translate(-24.523 -15.623)"/><path class="a" d="M11.459,30.3a1.454,1.454,0,0,1-.348-.058,13.471,13.471,0,1,1,17.7-17.728.863.863,0,0,1-1.593.666,11.726,11.726,0,1,0-15.411,15.44.886.886,0,0,1,.463,1.13A.873.873,0,0,1,11.459,30.3Z" transform="translate(-3 -4.4)"/><path class="a" d="M26.064,64.285a.729.729,0,0,1-.463-.145.885.885,0,0,1-.29-1.188,8.069,8.069,0,0,1,10.283-3.1.875.875,0,1,1-.724,1.593,6.457,6.457,0,0,0-2.636-.579,6.352,6.352,0,0,0-5.417,3.042A1.006,1.006,0,0,1,26.064,64.285Z" transform="translate(-18.764 -43.255)"/></g></g><g transform="translate(426.5 1413.1)"><path class="b" d="M10.15,21.962a.442.442,0,0,1-.442.442H7.942a.442.442,0,0,1,0-.883H9.709A.442.442,0,0,1,10.15,21.962Zm3.534-.442H11.917a.442.442,0,1,0,0,.883h1.767a.442.442,0,0,0,0-.883Zm3.975,0H15.892a.442.442,0,0,0,0,.883h1.767a.442.442,0,0,0,0-.883Zm3.975,0H19.868a.442.442,0,0,0,0,.883h1.767a.442.442,0,0,0,0-.883Zm-11.614-3.4a.441.441,0,0,0-.625,0l-.571.571-.571-.571a.442.442,0,1,0-.625.625l.571.571-.571.571a.442.442,0,1,0,.625.625l.571-.571.571.571a.442.442,0,1,0,.625-.625l-.571-.571.571-.571A.441.441,0,0,0,10.021,18.116Zm3.975,0a.441.441,0,0,0-.625,0l-.571.571-.571-.571a.442.442,0,1,0-.625.625l.571.571-.571.571a.442.442,0,1,0,.625.625l.571-.571.571.571A.442.442,0,1,0,14,19.883l-.571-.571L14,18.741A.441.441,0,0,0,14,18.116Zm3.975,0a.441.441,0,0,0-.625,0l-.571.571-.571-.571a.442.442,0,1,0-.625.625l.571.571-.571.571a.442.442,0,1,0,.625.625l.571-.571.571.571a.442.442,0,1,0,.625-.625l-.571-.571.571-.571A.441.441,0,0,0,17.971,18.116Zm3.4,1.2.571-.571a.442.442,0,1,0-.625-.625l-.571.571-.571-.571a.442.442,0,1,0-.625.625l.571.571-.571.571a.442.442,0,1,0,.625.625l.571-.571.571.571a.442.442,0,1,0,.625-.625Zm-2.368-8.129v4.154a1.327,1.327,0,0,1-1.325,1.325H11.894a1.327,1.327,0,0,1-1.325-1.325V11.183a.442.442,0,0,1,.442-.442h.818V9.86a2.96,2.96,0,0,1,5.921,0v.881h.817A.442.442,0,0,1,19.008,11.183Zm-6.3-.442h4.154V9.86a2.077,2.077,0,0,0-4.154,0Zm5.413.883H11.452v3.712a.442.442,0,0,0,.442.442h5.789a.442.442,0,0,0,.442-.442Z"/></g></g></svg>