<svg xmlns="http://www.w3.org/2000/svg" width="18" height="18" viewBox="0 0 18 18"><defs><style>.a{fill:#8a8a8a;}</style></defs><path class="a" d="M16.122,18H1.878A1.88,1.88,0,0,1,0,16.122V3.379A1.881,1.881,0,0,1,1.879,1.5H16.121A1.881,1.881,0,0,1,18,3.379V16.122A1.88,1.88,0,0,1,16.122,18ZM1.879,3a.38.38,0,0,0-.379.379V16.122a.378.378,0,0,0,.378.378H16.122a.378.378,0,0,0,.378-.378V3.379A.38.38,0,0,0,16.121,3H1.879ZM17.25,6H.75a.75.75,0,0,1,0-1.5h16.5a.75.75,0,0,1,0,1.5ZM3.75,3.75A.75.75,0,0,1,3,3V.75a.75.75,0,1,1,1.5,0V3A.75.75,0,0,1,3.75,3.75Zm10.5,0A.75.75,0,0,1,13.5,3V.75a.75.75,0,0,1,1.5,0V3A.75.75,0,0,1,14.25,3.75Z"/><circle class="a" cx="1.12" cy="1.12" r="1.12" transform="translate(3.359 9)"/><circle class="a" cx="1.12" cy="1.12" r="1.12" transform="translate(3.359 12)"/><circle class="a" cx="1.12" cy="1.12" r="1.12" transform="translate(12.315 9)"/><circle class="a" cx="1.12" cy="1.12" r="1.12" transform="translate(12.315 12)"/><circle class="a" cx="1.12" cy="1.12" r="1.12" transform="translate(7.837 9)"/><circle class="a" cx="1.12" cy="1.12" r="1.12" transform="translate(7.837 12)"/></svg>