<svg id="share_black_24dp_1_" focusable="false" fill="currentColor" data-name="share_black_24dp (1)" xmlns="http://www.w3.org/2000/svg" width="20" height="20" viewBox="0 0 20 20">
  <path id="Path_612" data-name="Path 612" d="M14.667,13.253a2.232,2.232,0,0,0-1.524.615L7.6,10.551a2.684,2.684,0,0,0,.07-.559,2.684,2.684,0,0,0-.07-.559L13.08,6.148a2.29,2.29,0,0,0,1.587.647A2.363,2.363,0,0,0,17,4.4a2.334,2.334,0,1,0-4.667,0,2.684,2.684,0,0,0,.07.559L6.92,8.242a2.29,2.29,0,0,0-1.587-.647,2.4,2.4,0,0,0,0,4.8,2.29,2.29,0,0,0,1.587-.647l5.538,3.325a2.263,2.263,0,1,0,2.209-1.814Z"/>
</svg>
