<svg xmlns="http://www.w3.org/2000/svg" width="19.236" height="15.491" viewBox="0 0 19.236 15.491"><defs><style>.a{stroke:none;}</style></defs><g transform="translate(-11.85 -21.85)"><g transform="translate(12 22)"><path class="a" d="M24.942,33.993a6,6,0,0,0,0-11.993H17.994a6,6,0,0,0-1.561,11.788c-.014.5-.014,2.413-.014,2.413a.889.889,0,0,0,1.518.72l3.554-2.927Zm-3.9-1.262-.175.144-3.183,2.613V32.75l-.521-.093a4.735,4.735,0,0,1,.834-9.4h6.948a4.734,4.734,0,0,1,0,9.468h-3.9Zm4.989-5.365a.631.631,0,0,0,0-1.262h-8.76a.631.631,0,0,0,0,1.262ZM22,29.89a.631.631,0,0,0,0-1.262H17.17a.631.631,0,0,0,0,1.262Z" transform="translate(-12 -22)"/></g></g></svg>
