<svg xmlns="http://www.w3.org/2000/svg" width="23.088" height="13.682" viewBox="0 0 23.088 13.682"><defs><style>.a{stroke:none;}</style></defs><g transform="translate(-29.727 -596.159)"><g transform="translate(29.727 596.159)"><path class="a" d="M2.993,0H12.4a2.993,2.993,0,0,1,2.993,2.993v7.7A2.993,2.993,0,0,1,12.4,13.682H2.993A2.993,2.993,0,0,1,0,10.689v-7.7A2.993,2.993,0,0,1,2.993,0Zm0,1.71A1.283,1.283,0,0,0,1.71,2.993v7.7a1.283,1.283,0,0,0,1.283,1.283H12.4a1.283,1.283,0,0,0,1.283-1.283v-7.7A1.283,1.283,0,0,0,12.4,1.71ZM17.7,2.6l2.85-.8a2,2,0,0,1,2.534,1.921V9.965a2,2,0,0,1-2.534,1.921l-2.85-.8a2,2,0,0,1-1.457-1.921V4.517A2,2,0,0,1,17.7,2.6Zm.462,1.647a.285.285,0,0,0-.208.274V9.165a.285.285,0,0,0,.208.274l2.85.8a.285.285,0,0,0,.362-.274V3.718a.285.285,0,0,0-.362-.274Z" transform="translate(0 0)"/></g></g></svg>
