<svg xmlns="http://www.w3.org/2000/svg" width="20.766" height="13.002" viewBox="0 0 20.766 13.002"><defs><style>.a{stroke:none;}</style></defs><g transform="translate(-5570.025 -961)"><path class="a" d="M33.408,46.4c-5.618,0-10.032-5.778-10.233-6.019a.846.846,0,0,1,0-.963c.2-.241,4.615-6.019,10.233-6.019s10.032,5.738,10.233,6.019a.846.846,0,0,1,0,.963C43.44,40.663,39.026,46.4,33.408,46.4Zm-8.547-6.461c1.124,1.324,4.575,4.856,8.547,4.856s7.424-3.571,8.547-4.9c-1.124-1.324-4.615-4.9-8.547-4.9C29.435,35.045,25.984,38.617,24.861,39.941Z" transform="translate(5547 927.6)"/><path class="a" d="M43.811,48.022a3.411,3.411,0,1,1,3.411-3.411A3.408,3.408,0,0,1,43.811,48.022Zm0-5.217a1.806,1.806,0,1,0,1.806,1.806A1.8,1.8,0,0,0,43.811,42.805Z" transform="translate(5536.597 922.93)"/></g></svg>
