<svg id="Component_6_1" data-name="Component 6 – 1" xmlns="http://www.w3.org/2000/svg" width="592" height="336" viewBox="0 0 592 336">
  <rect id="Rectangle_1122" data-name="Rectangle 1122" width="592" height="336" rx="5" fill="#fff"/>
  <rect id="Rectangle_1123" data-name="Rectangle 1123" width="193" height="250" rx="10" transform="translate(15 63)" fill="#f6f6f6"/>
  <text id="Filter_Patients" data-name="Filter Patients" transform="translate(25 43)" fill="#393939" font-size="15" font-family="Nunito-Bold, Nunito" font-weight="700"><tspan x="0" y="0">Filter Patients</tspan></text>
  <line id="Line_406" data-name="Line 406" y1="18" transform="translate(15 29)" fill="none" stroke="#a7c853" stroke-linecap="round" stroke-width="2"/>
  <text id="Monitoring_Staff" data-name="Monitoring Staff" transform="translate(36.5 125)" fill="#333" font-size="14" font-family="ProximaNova-Bold, Proxima Nova" font-weight="700"><tspan x="0" y="0">Monitoring Staff</tspan></text>
  <line id="Line_408" data-name="Line 408" y2="37" transform="translate(29 102)" fill="none" stroke="#a7c853" stroke-linecap="round" stroke-width="2"/>
  <rect id="Rectangle_1129" data-name="Rectangle 1129" width="130" height="20" transform="translate(35 152)" fill="#d9d9d9"/>
  <rect id="Rectangle_1132" data-name="Rectangle 1132" width="228" height="20" transform="translate(262 194)" fill="#e2e2e2"/>
  <rect id="Rectangle_1133" data-name="Rectangle 1133" width="155" height="20" transform="translate(262 232)" fill="#e2e2e2"/>
  <rect id="Rectangle_1130" data-name="Rectangle 1130" width="98" height="20" transform="translate(35 194)" fill="#d9d9d9"/>
  <rect id="Rectangle_1135" data-name="Rectangle 1135" width="119" height="20" transform="translate(35 236)" fill="#d9d9d9"/>
  <g id="Rectangle_1131" data-name="Rectangle 1131" transform="translate(228 76)" fill="#fff" stroke="#ebebeb" stroke-width="1">
    <rect width="330" height="52" rx="10" stroke="none"/>
    <rect x="0.5" y="0.5" width="329" height="51" rx="9.5" fill="none"/>
  </g>
  <g id="Rectangle_1136" data-name="Rectangle 1136" transform="translate(218 141)" fill="#f4ffe8" stroke="#a7c853" stroke-linecap="round" stroke-width="2" stroke-dasharray="10 13">
    <rect width="245" height="40" rx="5" stroke="none"/>
    <rect x="1" y="1" width="243" height="38" rx="4" fill="none"/>
  </g>
  <text id="Search_a_name..." data-name="Search a name..." transform="translate(245 106)" fill="#a2a2a2" font-size="14" font-family="ProximaNova-Regular, Proxima Nova"><tspan x="0" y="0">Search a name...</tspan></text>
  <g id="Group_13376" data-name="Group 13376" transform="translate(-287 -107)">
    <text id="No_assigned_monitoring_staff_" data-name="No assigned monitoring staff " transform="translate(549 272)" fill="#333" font-size="14" font-family="ProximaNova-Bold, Proxima Nova" font-weight="700"><tspan x="0" y="0">No assigned monitoring staff </tspan></text>
    <g id="Ellipse_9" data-name="Ellipse 9" transform="translate(519 261)" fill="#fff" stroke="#2f4f4f" stroke-width="1">
      <circle cx="6.5" cy="6.5" r="6.5" stroke="none"/>
      <circle cx="6.5" cy="6.5" r="6" fill="none"/>
    </g>
    <circle id="Ellipse_10" data-name="Ellipse 10" cx="4.5" cy="4.5" r="4.5" transform="translate(521 263)" fill="#2f4f4f"/>
  </g>
  <g id="Group_13375" data-name="Group 13375" transform="translate(-287 -62)">
    <g id="Ellipse_9-2" data-name="Ellipse 9" transform="translate(519 261)" fill="#fff" stroke="#2f4f4f" stroke-width="1">
      <circle cx="6.5" cy="6.5" r="6.5" stroke="none"/>
      <circle cx="6.5" cy="6.5" r="6" fill="none"/>
    </g>
  </g>
  <g id="Group_13378" data-name="Group 13378" transform="translate(-287 -26)">
    <g id="Ellipse_9-3" data-name="Ellipse 9" transform="translate(519 261)" fill="#fff" stroke="#2f4f4f" stroke-width="1">
      <circle cx="6.5" cy="6.5" r="6.5" stroke="none"/>
      <circle cx="6.5" cy="6.5" r="6" fill="none"/>
    </g>
  </g>
  <rect id="Rectangle_1134" data-name="Rectangle 1134" width="97" height="40" rx="5" transform="translate(230 272)" fill="#a7c853"/>
  <text id="Apply" transform="translate(259 297)" fill="#393939" font-size="15" font-family="Nunito-SemiBold, Nunito" font-weight="600"><tspan x="0" y="0">Apply</tspan></text>
</svg>
