<svg id="Component_5_1" data-name="Component 5 – 1" xmlns="http://www.w3.org/2000/svg" width="320" height="195" viewBox="0 0 320 195">
  <rect id="Rectangle_423" data-name="Rectangle 423" width="320" height="195" fill="#fff"/>
  <g id="Group_113" data-name="Group 113" transform="translate(-24 -277)">
    <path id="Path_1" data-name="Path 1" d="M15,0H275a15,15,0,0,1,15,15V149a15,15,0,0,1-15,15H15A15,15,0,0,1,0,149V15A15,15,0,0,1,15,0Z" transform="translate(39 293)" fill="#f2f2f2"/>
    <text id="Patients_without_a_monitoring_staff" data-name="Patients without a monitoring staff" transform="translate(59 334)" fill="#a7c853" font-size="15" font-family="Nunito-Bold, Nunito" font-weight="700" letter-spacing="-0.05em"><tspan x="0" y="0">Patients without a monitoring staff</tspan></text>
    <text id="View_patients_with_no_assigned_monitoring_staff" data-name="View patients with no assigned monitoring staff" transform="translate(59 349)" font-size="10" font-family="Nunito-Regular, Nunito"><tspan x="0" y="10">View patients with no assigned monitoring staff</tspan></text>
    <circle id="Ellipse_18" data-name="Ellipse 18" cx="8" cy="8" r="8" transform="translate(298 426)" fill="#fff"/>
    <g id="Group_65" data-name="Group 65" transform="translate(304.982 430.948)">
      <line id="Line_56" data-name="Line 56" x2="3.052" y2="3.052" fill="none" stroke="#a7c853" stroke-linecap="round" stroke-width="2"/>
      <line id="Line_57" data-name="Line 57" y1="3.052" x2="3.052" transform="translate(0 3.052)" fill="none" stroke="#a7c853" stroke-linecap="round" stroke-width="2"/>
    </g>
    <text id="_10" data-name="10" transform="translate(59 431)" fill="#a7c853" font-size="30" font-family="Nunito-Bold, Nunito" font-weight="700" letter-spacing="-0.05em"><tspan x="0" y="0">10</tspan></text>
  </g>
</svg>
